<svg width="25" height="25" viewBox="0 0 25 25" fill="none" xmlns="http://www.w3.org/2000/svg">
<mask id="mask0_125_40" style="mask-type:alpha" maskUnits="userSpaceOnUse" x="0" y="0" width="25" height="25">
<rect x="0.25" y="0.5" width="24" height="24" fill="#D9D9D9"/>
</mask>
<g mask="url(#mask0_125_40)">
<path d="M6.25 22.5C5.41667 22.5 4.70833 22.2083 4.125 21.625C3.54167 21.0417 3.25 20.3333 3.25 19.5V5.5C3.25 4.66667 3.54167 3.95833 4.125 3.375C4.70833 2.79167 5.41667 2.5 6.25 2.5H17.25V18.5H6.25C5.96667 18.5 5.72917 18.5958 5.5375 18.7875C5.34583 18.9792 5.25 19.2167 5.25 19.5C5.25 19.7833 5.34583 20.0208 5.5375 20.2125C5.72917 20.4042 5.96667 20.5 6.25 20.5H19.25V4.5H21.25V22.5H6.25ZM9.25 16.5H15.25V4.5H9.25V16.5ZM7.25 16.5V4.5H6.25C5.96667 4.5 5.72917 4.59583 5.5375 4.7875C5.34583 4.97917 5.25 5.21667 5.25 5.5V16.675C5.41667 16.625 5.57917 16.5833 5.7375 16.55C5.89583 16.5167 6.06667 16.5 6.25 16.5H7.25Z" fill="#7500BC"/>
</g>
</svg>
