<svg width="25" height="25" viewBox="0 0 25 25" fill="none" xmlns="http://www.w3.org/2000/svg">
<mask id="mask0_125_45" style="mask-type:alpha" maskUnits="userSpaceOnUse" x="0" y="0" width="25" height="25">
<rect x="0.75" y="0.5" width="24" height="24" fill="#D9D9D9"/>
</mask>
<g mask="url(#mask0_125_45)">
<path d="M6.75 23.5V15.275L3.5 10L8.125 2.5H17.375L22 10L18.75 15.275V23.5L12.75 21.5L6.75 23.5ZM8.75 20.725L12.75 19.4L16.75 20.725V17.5H8.75V20.725ZM9.25 4.5L5.85 10L9.25 15.5H16.25L19.65 10L16.25 4.5H9.25ZM11.7 14.075L8.15 10.55L9.575 9.125L11.7 11.25L15.925 7L17.35 8.4L11.7 14.075Z" fill="#D1A5EC"/>
</g>
</svg>
