<svg width="25" height="25" viewBox="0 0 25 25" fill="none" xmlns="http://www.w3.org/2000/svg">
<mask id="mask0_125_50" style="mask-type:alpha" maskUnits="userSpaceOnUse" x="0" y="0" width="25" height="25">
<rect x="0.25" y="0.5" width="24" height="24" fill="#D9D9D9"/>
</mask>
<g mask="url(#mask0_125_50)">
<path d="M12.25 18.5C11.3167 18.5 10.425 18.6458 9.575 18.9375C8.725 19.2292 7.95 19.6667 7.25 20.25V20.5H17.25V20.25C16.55 19.6667 15.775 19.2292 14.925 18.9375C14.075 18.6458 13.1833 18.5 12.25 18.5ZM5.25 19.35C6.15 18.4667 7.19583 17.7708 8.3875 17.2625C9.57917 16.7542 10.8667 16.5 12.25 16.5C13.6333 16.5 14.9208 16.7542 16.1125 17.2625C17.3042 17.7708 18.35 18.4667 19.25 19.35V6.5H5.25V19.35ZM12.25 14.5C11.2833 14.5 10.4583 14.1583 9.775 13.475C9.09167 12.7917 8.75 11.9667 8.75 11C8.75 10.0333 9.09167 9.20833 9.775 8.525C10.4583 7.84167 11.2833 7.5 12.25 7.5C13.2167 7.5 14.0417 7.84167 14.725 8.525C15.4083 9.20833 15.75 10.0333 15.75 11C15.75 11.9667 15.4083 12.7917 14.725 13.475C14.0417 14.1583 13.2167 14.5 12.25 14.5ZM12.25 12.5C12.6667 12.5 13.0208 12.3542 13.3125 12.0625C13.6042 11.7708 13.75 11.4167 13.75 11C13.75 10.5833 13.6042 10.2292 13.3125 9.9375C13.0208 9.64583 12.6667 9.5 12.25 9.5C11.8333 9.5 11.4792 9.64583 11.1875 9.9375C10.8958 10.2292 10.75 10.5833 10.75 11C10.75 11.4167 10.8958 11.7708 11.1875 12.0625C11.4792 12.3542 11.8333 12.5 12.25 12.5ZM5.25 22.5C4.7 22.5 4.22917 22.3042 3.8375 21.9125C3.44583 21.5208 3.25 21.05 3.25 20.5V6.5C3.25 5.95 3.44583 5.47917 3.8375 5.0875C4.22917 4.69583 4.7 4.5 5.25 4.5H6.25V2.5H8.25V4.5H16.25V2.5H18.25V4.5H19.25C19.8 4.5 20.2708 4.69583 20.6625 5.0875C21.0542 5.47917 21.25 5.95 21.25 6.5V20.5C21.25 21.05 21.0542 21.5208 20.6625 21.9125C20.2708 22.3042 19.8 22.5 19.25 22.5H5.25Z" fill="#D1A5EC"/>
</g>
</svg>
